<?xml version="1.0" encoding="UTF-8" standalone="no"?>
<svg width="429px" height="92px" viewBox="0 0 429 92" version="1.1" xmlns="http://www.w3.org/2000/svg" xmlns:xlink="http://www.w3.org/1999/xlink" xmlns:sketch="http://www.bohemiancoding.com/sketch/ns">
    <!-- Generator: Sketch 3.4.4 (17249) - http://www.bohemiancoding.com/sketch -->
    <title>Logo</title>
    <desc>Created with Sketch.</desc>
    <defs>
        <filter x="-50%" y="-50%" width="200%" height="200%" filterUnits="objectBoundingBox" id="filter-1">
            <feOffset dx="3" dy="0" in="SourceAlpha" result="shadowOffsetOuter1"></feOffset>
            <feGaussianBlur stdDeviation="2" in="shadowOffsetOuter1" result="shadowBlurOuter1"></feGaussianBlur>
            <feColorMatrix values="0 0 0 0 0   0 0 0 0 0   0 0 0 0 0  0 0 0 0.28 0" in="shadowBlurOuter1" type="matrix" result="shadowMatrixOuter1"></feColorMatrix>
            <feMerge>
                <feMergeNode in="shadowMatrixOuter1"></feMergeNode>
                <feMergeNode in="SourceGraphic"></feMergeNode>
            </feMerge>
        </filter>
        <linearGradient x1="50%" y1="0%" x2="50%" y2="78.056624%" id="linearGradient-2">
            <stop stop-color="#E90000" offset="0%"></stop>
            <stop stop-color="#BD0000" offset="100%"></stop>
        </linearGradient>
    </defs>
    <g id="Page-1" stroke="none" stroke-width="1" fill="none" fill-rule="evenodd" sketch:type="MSPage">
        <g id="Logo-On-White-Copy-2" sketch:type="MSArtboardGroup" transform="translate(-34.000000, -38.000000)">
            <g id="Logo" sketch:type="MSLayerGroup" transform="translate(35.000000, 41.000000)">
                <g id="Group" sketch:type="MSShapeGroup">
                    <path d="M8.75983369,9.94105625 L35.4652963,1.27975901 C38.0953658,0.426756986 41.8129212,1.31707493 43.7675744,3.26722808 L64.8644243,24.3155078 C66.8195765,26.2661587 66.1807749,28.0488659 63.4219734,28.298713 L44.072986,30.0510273 L8.75983369,9.94105625 Z" id="Rectangle-2-Copy" fill="#BD0000"></path>
                    <path d="M44,30 L65.2506705,26.4876312 L66,26.36378 L66,67.9972745 C66,69.1033493 65.1103261,70 64.008845,70 L45.991155,70 C44.8914705,70 44,69.1084602 44,68.0027084 L44,30 Z" id="Rectangle-2" fill="#E90000"></path>
                    <path d="M0.00697106534,16.185242 C-0.0184023198,13.4223159 2.1136975,10.5813008 4.77076284,9.83920655 L35.1902656,1.3433152 C37.8466086,0.601422701 40,2.2431692 40,4.99820893 L40,80.5093976 C40,83.2698322 37.7963711,85.1454355 35.0677684,84.6969839 L5.51633428,79.8401434 C2.792338,79.3924489 0.563549385,76.7914544 0.538160133,74.0268005 L0.00697106534,16.185242 Z" id="Rectangle-1" fill="#E90000" filter="url(#filter-1)"></path>
                    <circle id="Oval-1" fill="#BD0000" cx="32" cy="43" r="4"></circle>
                </g>
                <path d="M136.912,65.824 C136.912,65.32 136.768,64.744 136.624,64.24 L121.576,26.08 C120.424,23.2 117.472,21.4 114.376,21.544 C111.424,21.544 108.76,23.344 107.68,26.08 L92.704,64.24 C92.416,64.744 92.344,65.32 92.344,65.824 C92.344,68.2 94.216,70.432 96.952,70.432 C98.752,70.432 100.48,69.352 101.128,67.624 L103.72,60.928 L125.608,60.928 L128.128,67.624 C128.848,69.352 130.504,70.432 132.304,70.432 C135.112,70.432 136.912,68.056 136.912,65.824 L136.912,65.824 Z M123.16,53.296 L106.096,53.296 L114.664,30.616 L123.16,53.296 Z M173.776,38.68 C173.776,36.664 172.192,34.864 169.816,34.864 C168.304,34.864 166.864,35.728 166.288,37.24 L157.072,61.072 L147.784,37.168 C147.208,35.728 145.84,34.864 144.256,34.864 C141.952,34.864 140.368,36.736 140.368,38.608 C140.368,39.04 140.44,39.544 140.656,39.976 L151.6,66.832 C152.464,68.992 154.624,70.432 157,70.432 L157.144,70.432 C159.52,70.432 161.608,68.992 162.544,66.832 L173.488,39.976 C173.704,39.544 173.776,39.04 173.776,38.68 L173.776,38.68 Z M212.656,51.352 C212.656,49.84 212.224,48.184 211.792,46.744 C209.632,39.256 203.728,34.36 195.592,34.36 C185.296,34.36 177.952,42.496 177.952,52.576 C177.952,63.592 185.728,70.864 196.168,70.864 C200.632,70.864 209.56,69.064 209.56,65.104 C209.56,63.232 207.904,61.936 206.32,61.936 C205.816,61.936 205.24,62.08 204.736,62.368 C202.36,63.88 199.48,64.672 196.96,64.672 C190.48,64.672 186.52,60.28 186.016,55.096 L208.912,55.096 C211,55.096 212.656,53.368 212.656,51.352 L212.656,51.352 Z M205.24,49.768 L185.944,49.768 C186.304,45.592 189.256,40.552 195.592,40.552 C202.36,40.552 205.096,45.736 205.24,49.768 L205.24,49.768 Z M239.584,38.104 C239.584,36.232 238.288,34.792 236.2,34.792 C232.528,34.792 229.792,37.816 227.92,40.336 L227.92,38.536 C227.92,36.52 226.192,34.792 224.176,34.792 C221.872,34.792 220.216,36.52 220.216,38.536 L220.216,66.616 C220.216,68.704 221.872,70.432 223.96,70.432 L224.104,70.432 C226.192,70.432 227.92,68.704 227.92,66.616 L227.92,46.384 C229.792,43.72 232.744,42.424 235.84,42.136 C238,41.848 239.584,40.408 239.584,38.104 L239.584,38.104 Z M271.696,59.92 C271.696,46.096 250.744,50.704 250.744,44.584 C250.744,42.208 253.192,40.336 257.08,40.336 C260.176,40.336 263.128,41.272 265.36,42.784 C265.864,43.072 266.44,43.216 266.944,43.216 C268.6,43.216 270.04,41.92 270.04,40.264 C270.04,39.616 269.824,39.04 269.392,38.536 C267.016,35.8 261.76,34.36 257.08,34.36 C248.224,34.36 243.256,39.256 243.256,44.944 C243.256,58.336 264.28,53.44 264.28,60.208 C264.28,62.872 262.048,64.816 257.512,64.816 C254.2,64.816 250.6,63.52 247.936,61.72 C247.432,61.36 246.784,61.216 246.208,61.216 C244.48,61.216 242.896,62.656 242.896,64.456 C242.896,65.176 243.184,65.824 243.616,66.328 C246.352,69.424 252.544,70.864 257.224,70.864 C266.584,70.864 271.696,66.112 271.696,59.92 L271.696,59.92 Z M313.456,52.576 C313.456,41.128 307.048,34.36 298.048,34.36 C293.584,34.36 289.552,36.448 286.96,39.904 L286.96,38.536 C286.96,36.52 285.232,34.792 283.216,34.792 C280.912,34.792 279.256,36.52 279.256,38.536 L279.256,79.936 C279.256,81.952 280.912,83.68 283.072,83.68 C285.232,83.68 286.96,81.952 286.96,79.936 L286.96,65.248 C289.768,68.92 293.728,70.864 298.048,70.864 C307.048,70.864 313.456,64.024 313.456,52.576 L313.456,52.576 Z M305.464,52.576 C305.464,59.272 301.648,64.024 295.744,64.024 C292.288,64.024 288.616,61.864 286.96,59.416 L286.96,45.808 C288.616,43.288 292.288,41.2 295.744,41.2 C301.648,41.2 305.464,45.952 305.464,52.576 L305.464,52.576 Z M349.816,66.616 L349.816,46.96 C349.816,37.6 342.976,34.36 335.272,34.36 C330.88,34.36 324.472,35.8 321.736,39.256 C321.376,39.688 321.16,40.336 321.16,40.912 C321.16,42.784 322.744,43.936 324.184,43.936 C324.76,43.936 325.336,43.72 325.768,43.432 C328.288,41.56 331.024,40.768 334.048,40.768 C338.8,40.768 342.112,43.216 342.112,47.176 L342.112,52.504 C339.664,49.552 335.56,48.04 330.952,48.04 C325.264,48.04 318.784,51.352 318.784,59.344 C318.784,67.048 325.264,70.864 330.952,70.864 C335.488,70.864 339.592,69.208 342.112,66.256 L342.112,66.904 C342.112,69.568 344.56,70.432 345.568,70.432 L346,70.432 C348.088,70.432 349.816,68.704 349.816,66.616 L349.816,66.616 Z M342.112,62.008 C340.384,64.384 337.216,65.536 333.904,65.536 C329.8,65.536 326.632,63.16 326.632,59.488 C326.632,55.672 329.8,53.368 333.904,53.368 C337.216,53.368 340.384,54.52 342.112,56.824 L342.112,62.008 Z M387.76,64.6 C387.76,62.584 385.96,61.216 384.088,61.216 C383.296,61.216 382.576,61.432 381.856,61.936 C380.056,63.304 378.112,64.024 375.808,64.024 C369.544,64.024 365.368,59.272 365.368,52.576 C365.368,45.88 369.544,41.2 375.808,41.2 C378.04,41.2 380.056,41.848 381.856,43.216 C382.504,43.72 383.296,43.936 384.088,43.936 C385.888,43.936 387.688,42.64 387.688,40.624 C387.688,40.048 387.544,39.472 387.184,39.04 C385.24,36.232 380.776,34.36 375.448,34.36 C364.864,34.36 357.448,42.064 357.448,52.576 C357.448,63.16 364.864,70.864 375.448,70.864 C380.488,70.864 384.088,69.28 386.608,66.976 C387.4,66.4 387.76,65.464 387.76,64.6 L387.76,64.6 Z M427.936,51.352 C427.936,49.84 427.504,48.184 427.072,46.744 C424.912,39.256 419.008,34.36 410.872,34.36 C400.576,34.36 393.232,42.496 393.232,52.576 C393.232,63.592 401.008,70.864 411.448,70.864 C415.912,70.864 424.84,69.064 424.84,65.104 C424.84,63.232 423.184,61.936 421.6,61.936 C421.096,61.936 420.52,62.08 420.016,62.368 C417.64,63.88 414.76,64.672 412.24,64.672 C405.76,64.672 401.8,60.28 401.296,55.096 L424.192,55.096 C426.28,55.096 427.936,53.368 427.936,51.352 L427.936,51.352 Z M420.52,49.768 L401.224,49.768 C401.584,45.592 404.536,40.552 410.872,40.552 C417.64,40.552 420.376,45.736 420.52,49.768 L420.52,49.768 Z" id="Averspace" fill="url(#linearGradient-2)" sketch:type="MSShapeGroup"></path>
            </g>
        </g>
    </g>
</svg>